<mxfile host="app.diagrams.net" agent="Mozilla/5.0 (Windows NT 10.0; Win64; x64) AppleWebKit/537.36 (KHTML, like Gecko) Chrome/129.0.0.0 Safari/537.36" version="24.7.16">
  <diagram name="Página-1" id="dD90SmdXsx337cMtAzFO">
    <mxGraphModel grid="1" page="1" gridSize="10" guides="1" tooltips="1" connect="1" arrows="1" fold="1" pageScale="1" pageWidth="827" pageHeight="1169" math="0" shadow="0">
      <root>
        <mxCell id="0" />
        <mxCell id="1" parent="0" />
        <mxCell id="tnjm1l-_3k53b4XWaDbS-1" value="&lt;p style=&quot;line-height: 120%;&quot;&gt;&lt;b&gt;&lt;font color=&quot;#ffffff&quot; style=&quot;font-size: 20px;&quot;&gt;INTERFAZ DE USUARIO&lt;/font&gt;&lt;/b&gt;&lt;/p&gt;" style="sketch=0;pointerEvents=1;shadow=0;dashed=0;html=1;strokeColor=none;fillColor=#505050;labelPosition=center;verticalLabelPosition=middle;verticalAlign=middle;outlineConnect=0;align=center;shape=mxgraph.office.concepts.folder;" vertex="1" parent="1">
          <mxGeometry x="250" y="152.5" width="270" height="110" as="geometry" />
        </mxCell>
        <mxCell id="UbmrtDJ3BTN43E1XNRnQ-11" style="edgeStyle=none;rounded=0;html=1;dashed=1;labelBackgroundColor=none;startArrow=none;startFill=0;startSize=8;endArrow=open;endFill=0;endSize=16;fontFamily=Verdana;fontSize=12;" edge="1" parent="1" source="tnjm1l-_3k53b4XWaDbS-1" target="KaveBa07F8gbrZPQnX7j-10">
          <mxGeometry relative="1" as="geometry">
            <mxPoint x="680" y="350" as="sourcePoint" />
            <mxPoint x="685.3399999999999" y="478.65" as="targetPoint" />
          </mxGeometry>
        </mxCell>
        <mxCell id="UbmrtDJ3BTN43E1XNRnQ-12" style="edgeStyle=none;rounded=0;html=1;dashed=1;labelBackgroundColor=none;startArrow=none;startFill=0;startSize=8;endArrow=open;endFill=0;endSize=16;fontFamily=Verdana;fontSize=12;" edge="1" parent="1" source="KaveBa07F8gbrZPQnX7j-2" target="KaveBa07F8gbrZPQnX7j-10">
          <mxGeometry relative="1" as="geometry">
            <mxPoint x="920.23" y="309.25" as="sourcePoint" />
            <mxPoint x="889.6999999999998" y="478.65" as="targetPoint" />
          </mxGeometry>
        </mxCell>
        <mxCell id="UbmrtDJ3BTN43E1XNRnQ-46" style="edgeStyle=none;rounded=0;html=1;dashed=1;labelBackgroundColor=none;startArrow=none;startFill=0;startSize=8;endArrow=open;endFill=0;endSize=16;fontFamily=Verdana;fontSize=12;" edge="1" parent="1" source="KaveBa07F8gbrZPQnX7j-3" target="KaveBa07F8gbrZPQnX7j-10">
          <mxGeometry relative="1" as="geometry">
            <mxPoint x="387.07106781186553" y="455.07106781186553" as="sourcePoint" />
            <mxPoint x="666.6199999999999" y="529.1999999999999" as="targetPoint" />
          </mxGeometry>
        </mxCell>
        <mxCell id="UbmrtDJ3BTN43E1XNRnQ-92" style="edgeStyle=none;rounded=0;html=1;dashed=1;labelBackgroundColor=none;startArrow=none;startFill=0;startSize=8;endArrow=open;endFill=0;endSize=16;fontFamily=Verdana;fontSize=12;" edge="1" parent="1" target="KaveBa07F8gbrZPQnX7j-10" source="KaveBa07F8gbrZPQnX7j-8">
          <mxGeometry relative="1" as="geometry">
            <mxPoint x="1150.0085111316585" y="629.5875073402979" as="sourcePoint" />
            <mxPoint x="930" y="620" as="targetPoint" />
          </mxGeometry>
        </mxCell>
        <mxCell id="UbmrtDJ3BTN43E1XNRnQ-102" style="edgeStyle=none;rounded=0;html=1;dashed=1;labelBackgroundColor=none;startArrow=none;startFill=0;startSize=8;endArrow=open;endFill=0;endSize=16;fontFamily=Verdana;fontSize=12;" edge="1" parent="1" target="KaveBa07F8gbrZPQnX7j-10" source="tnjm1l-_3k53b4XWaDbS-5">
          <mxGeometry relative="1" as="geometry">
            <mxPoint x="1232.9289321881347" y="232.9289321881347" as="sourcePoint" />
            <mxPoint x="930" y="550" as="targetPoint" />
          </mxGeometry>
        </mxCell>
        <mxCell id="UbmrtDJ3BTN43E1XNRnQ-128" style="edgeStyle=none;rounded=0;html=1;dashed=1;labelBackgroundColor=none;startArrow=none;startFill=0;startSize=8;endArrow=open;endFill=0;endSize=16;fontFamily=Verdana;fontSize=12;" edge="1" parent="1" source="KaveBa07F8gbrZPQnX7j-6" target="KaveBa07F8gbrZPQnX7j-10">
          <mxGeometry relative="1" as="geometry">
            <mxPoint x="868.8899999999999" y="804.1500000000001" as="sourcePoint" />
            <mxPoint x="901.6600000000001" y="629.0999999999999" as="targetPoint" />
          </mxGeometry>
        </mxCell>
        <mxCell id="UbmrtDJ3BTN43E1XNRnQ-129" style="edgeStyle=none;rounded=0;html=1;dashed=1;labelBackgroundColor=none;startArrow=none;startFill=0;startSize=8;endArrow=open;endFill=0;endSize=16;fontFamily=Verdana;fontSize=12;" edge="1" parent="1" source="KaveBa07F8gbrZPQnX7j-5" target="KaveBa07F8gbrZPQnX7j-10">
          <mxGeometry relative="1" as="geometry">
            <mxPoint x="1169" y="844" as="sourcePoint" />
            <mxPoint x="727.4599999999998" y="632.4000000000001" as="targetPoint" />
          </mxGeometry>
        </mxCell>
        <mxCell id="UbmrtDJ3BTN43E1XNRnQ-130" style="edgeStyle=none;rounded=0;html=1;dashed=1;labelBackgroundColor=none;startArrow=none;startFill=0;startSize=8;endArrow=open;endFill=0;endSize=16;fontFamily=Verdana;fontSize=12;" edge="1" parent="1" target="KaveBa07F8gbrZPQnX7j-10" source="tnjm1l-_3k53b4XWaDbS-6">
          <mxGeometry relative="1" as="geometry">
            <mxPoint x="1160" y="438" as="sourcePoint" />
            <mxPoint x="927.3999999999999" y="587.4000000000001" as="targetPoint" />
          </mxGeometry>
        </mxCell>
        <mxCell id="KaveBa07F8gbrZPQnX7j-2" value="&lt;p style=&quot;line-height: 120%;&quot;&gt;&lt;span style=&quot;font-size: 20px;&quot;&gt;&lt;b&gt;GESTION DE PRODUCTOS&lt;/b&gt;&lt;/span&gt;&lt;/p&gt;" style="sketch=0;pointerEvents=1;shadow=0;dashed=0;html=1;strokeColor=none;fillColor=#505050;labelPosition=center;verticalLabelPosition=middle;verticalAlign=middle;outlineConnect=0;align=center;shape=mxgraph.office.concepts.folder;fontColor=#FFFFFF;" vertex="1" parent="1">
          <mxGeometry x="661.25" y="152.5" width="287.5" height="115" as="geometry" />
        </mxCell>
        <mxCell id="KaveBa07F8gbrZPQnX7j-3" value="&lt;h1 style=&quot;font-family: Verdana; line-height: 52.8px; font-size: 18px;&quot;&gt;&lt;font color=&quot;#ffffff&quot;&gt;GESTION DE USAURIOS&lt;/font&gt;&lt;/h1&gt;" style="sketch=0;pointerEvents=1;shadow=0;dashed=0;html=1;strokeColor=none;fillColor=#505050;labelPosition=center;verticalLabelPosition=middle;verticalAlign=middle;outlineConnect=0;align=center;shape=mxgraph.office.concepts.folder;" vertex="1" parent="1">
          <mxGeometry x="150" y="510" width="270" height="110" as="geometry" />
        </mxCell>
        <mxCell id="KaveBa07F8gbrZPQnX7j-5" value="&lt;h1 style=&quot;text-align: left; font-family: Verdana; line-height: 52.8px;&quot;&gt;&lt;span style=&quot;font-size: 20px;&quot;&gt;GEOLOCALIZACION&lt;/span&gt;&lt;/h1&gt;" style="sketch=0;pointerEvents=1;shadow=0;dashed=0;html=1;strokeColor=none;fillColor=#505050;labelPosition=center;verticalLabelPosition=middle;verticalAlign=middle;outlineConnect=0;align=center;shape=mxgraph.office.concepts.folder;fontColor=#FFFFFF;" vertex="1" parent="1">
          <mxGeometry x="240" y="740" width="270" height="110" as="geometry" />
        </mxCell>
        <mxCell id="tnjm1l-_3k53b4XWaDbS-5" value="&lt;p style=&quot;line-height: 120%;&quot;&gt;&lt;span style=&quot;font-size: 20px;&quot;&gt;&lt;b&gt;GESTIÓN&amp;nbsp;&lt;/b&gt;&lt;/span&gt;&lt;/p&gt;&lt;p style=&quot;line-height: 120%;&quot;&gt;&lt;span style=&quot;font-size: 20px;&quot;&gt;&lt;b&gt;DE CALIFICACIONES&lt;/b&gt;&lt;/span&gt;&lt;/p&gt;&lt;p style=&quot;line-height: 120%;&quot;&gt;&lt;span style=&quot;font-size: 20px;&quot;&gt;&lt;b&gt;&amp;nbsp;Y RECOMPENSAS&lt;/b&gt;&lt;/span&gt;&lt;/p&gt;" style="sketch=0;pointerEvents=1;shadow=0;dashed=0;html=1;strokeColor=none;fillColor=#505050;labelPosition=center;verticalLabelPosition=middle;verticalAlign=bottom;outlineConnect=0;align=center;shape=mxgraph.office.concepts.folder;fontColor=#FFFFFF;" vertex="1" parent="1">
          <mxGeometry x="1140" y="152.5" width="287.5" height="115" as="geometry" />
        </mxCell>
        <mxCell id="KaveBa07F8gbrZPQnX7j-6" value="&lt;h1 style=&quot;text-align: left; font-family: Verdana; line-height: 52.8px;&quot;&gt;&lt;span style=&quot;font-size: 20px;&quot;&gt;BASE DE DATOS&lt;/span&gt;&lt;/h1&gt;" style="sketch=0;pointerEvents=1;shadow=0;dashed=0;html=1;strokeColor=none;fillColor=#505050;labelPosition=center;verticalLabelPosition=middle;verticalAlign=middle;outlineConnect=0;align=center;shape=mxgraph.office.concepts.folder;fontColor=#FFFFFF;" vertex="1" parent="1">
          <mxGeometry x="670" y="780" width="270" height="110" as="geometry" />
        </mxCell>
        <mxCell id="tnjm1l-_3k53b4XWaDbS-6" value="&lt;p style=&quot;line-height: 120%;&quot;&gt;&lt;span style=&quot;font-size: 20px;&quot;&gt;&lt;b&gt;ADMINISTRACIÓN DEL&lt;/b&gt;&lt;/span&gt;&lt;/p&gt;&lt;p style=&quot;line-height: 120%;&quot;&gt;&lt;span style=&quot;font-size: 20px;&quot;&gt;&lt;b&gt;&amp;nbsp;SISTEMA&lt;/b&gt;&lt;/span&gt;&lt;/p&gt;" style="sketch=0;pointerEvents=1;shadow=0;dashed=0;html=1;strokeColor=none;fillColor=#505050;labelPosition=center;verticalLabelPosition=middle;verticalAlign=bottom;outlineConnect=0;align=center;shape=mxgraph.office.concepts.folder;fontColor=#FFFFFF;" vertex="1" parent="1">
          <mxGeometry x="1160" y="505" width="287.5" height="115" as="geometry" />
        </mxCell>
        <mxCell id="KaveBa07F8gbrZPQnX7j-8" value="&lt;h1 style=&quot;text-align: left; font-family: Verdana; line-height: 52.8px;&quot;&gt;&lt;span style=&quot;font-size: 20px;&quot;&gt;SISTEMA DE PAGOS&lt;/span&gt;&lt;/h1&gt;" style="sketch=0;pointerEvents=1;shadow=0;dashed=0;html=1;strokeColor=none;fillColor=#505050;labelPosition=center;verticalLabelPosition=middle;verticalAlign=middle;outlineConnect=0;align=center;shape=mxgraph.office.concepts.folder;fontColor=#FFFFFF;" vertex="1" parent="1">
          <mxGeometry x="1060" y="740" width="270" height="110" as="geometry" />
        </mxCell>
        <mxCell id="KaveBa07F8gbrZPQnX7j-10" value="&lt;h1 style=&quot;text-align: left; font-family: Verdana; line-height: 52.8px;&quot;&gt;&lt;span style=&quot;font-size: 20px;&quot;&gt;GREENMARKET&lt;/span&gt;&lt;/h1&gt;" style="sketch=0;pointerEvents=1;shadow=0;dashed=0;html=1;strokeColor=none;fillColor=#505050;labelPosition=center;verticalLabelPosition=middle;verticalAlign=middle;outlineConnect=0;align=center;shape=mxgraph.office.concepts.folder;fontColor=#FFFFFF;" vertex="1" parent="1">
          <mxGeometry x="661.25" y="510" width="270" height="110" as="geometry" />
        </mxCell>
      </root>
    </mxGraphModel>
  </diagram>
</mxfile>
